<svg color="#fff" width="24" height="24" xmlns="http://www.w3.org/2000/svg"><path d="M9.332 1.625A5.97 5.97 0 0112 1c.959 0 1.865.225 2.668.625L16.146.146a.5.5 0 01.708.708L15.547 2.16A5.992 5.992 0 0118 7H6c0-1.987.966-3.748 2.453-4.84L7.146.854a.5.5 0 11.708-.708l1.478 1.479zM13 19h-2v3.5a1.5 1.5 0 01-3 0V19H7a1 1 0 01-1-1V8h12v10a1 1 0 01-1 1h-1v3.5a1.5 1.5 0 01-3 0V19zm7.5-11A1.5 1.5 0 0122 9.5v7a1.5 1.5 0 01-3 0v-7A1.5 1.5 0 0120.5 8zm-17 0A1.5 1.5 0 015 9.5v7a1.5 1.5 0 01-3 0v-7A1.5 1.5 0 013.5 8zM9 4v1h1V4H9zm5 0v1h1V4h-1z" fill="currentColor" fill-rule="evenodd"/></svg>