<svg color="#fff" width="24" height="24" xmlns="http://www.w3.org/2000/svg"><path d="M19.64 18.658c-.884 1.414-2.097 3.176-3.64 3.191-1.372.013-1.639-1.011-3.5-1-1.861.01-2.128 1.013-3.5 1-1.543-.014-2.964-1.604-3.848-3.016-2.472-3.952-2.73-8.59-1.206-11.054C5.03 6.027 6.738 5.002 8.345 5.002c1.636 0 2.665.942 4.017.942 1.312 0 2.112-.944 4.003-.944 1.43 0 2.944.818 4.024 2.231-3.537 2.036-2.962 7.34.611 8.76-.491 1.144-.727 1.655-1.36 2.667zM17 0c-3 0-5 2-5 5 3 0 5-2 5-5z" fill="currentColor" fill-rule="evenodd"/></svg>