<svg width="39" height="39" xmlns="http://www.w3.org/2000/svg"><g transform="translate(-6 -4)" fill="none"><circle fill="#EEF9F4" cx="23.25" cy="25.33" r="17"/><path d="M22.974 25.142l3.219 1.927a1 1 0 01.374 1.318l-.812 1.565a1 1 0 01-1.372.414l-4.868-2.7A1 1 0 0119 26.79V20a1 1 0 011-1h1.974a1 1 0 011 1v5.142z" fill="#2EB773"/><path d="M24.258 8.36c8.92.52 15.992 7.92 15.992 16.97v.065a12.448 12.448 0 01-4.75.935c-6.904 0-12.5-5.596-12.5-12.5 0-1.958.45-3.81 1.252-5.46z" fill="#A0DEC0"/><circle fill="#EEF9F4" cx="35.5" cy="13.83" r="9.5"/><path d="M33.889 14.974l4.076-4.512a1.302 1.302 0 011.902-.033 1.49 1.49 0 01.035 2.034l-5.225 5.79a1 1 0 01-1.467.018l-2.432-2.556a1.58 1.58 0 01-.097-2.064 1.204 1.204 0 011.804-.102l1.404 1.425z" fill="#2EB773"/></g></svg>