<svg width="20" height="20" xmlns="http://www.w3.org/2000/svg" xmlns:xlink="http://www.w3.org/1999/xlink"><defs><path d="M.946 5.29C2.448 2.15 5.586 0 9.235 0c2.35 0 4.45.907 6.087 2.375l-2.687 2.764a5.249 5.249 0 0 0-3.4-1.253c-2.422 0-4.467 1.609-5.183 3.848L.946 5.291z" id="a"/></defs><g transform="translate(1)" fill="none" fill-rule="evenodd"><path d="M15.35 16.54l-3.145-2.191c1.018-.623 1.727-1.612 1.983-2.906H9.235v-3.67h8.605c.126.561.21 1.166.21 1.727 0 3.037-1.06 5.42-2.7 7.04z" fill="#3E82F7"/><path d="M15.35 16.54C13.726 18.146 11.532 19 9.235 19c-3.65 0-6.79-2.15-8.29-5.293l3.104-2.449c.714 2.243 2.761 3.856 5.186 3.856 1.14 0 2.154-.265 2.97-.765l3.145 2.192z" fill="#2DA94F"/><path d="M.946 13.71A9.734 9.734 0 0 1 0 9.5c0-1.514.34-2.942.946-4.21l3.106 2.444A5.785 5.785 0 0 0 3.778 9.5c0 .617.096 1.211.274 1.766L.946 13.709z" fill="#FDBD00"/><use fill="#ED412D" xlink:href="#a"/></g></svg>
