<svg width="48" height="48" xmlns="http://www.w3.org/2000/svg" xmlns:xlink="http://www.w3.org/1999/xlink"><defs><linearGradient x1="50%" y1="50%" x2="50%" y2="0%" id="b"><stop stop-color="#818181" stop-opacity="0" offset="0%"/><stop stop-color="#818181" offset="100%"/></linearGradient><path d="M35.999 20.9L36 21c0 6.5-4.135 12.035-9.918 14.117l-4.787 5.737a.384.384 0 01-.59 0l-4.77-5.731C10.142 33.045 6 27.506 6 21v-.1h8v.1a7 7 0 0014 0l-.002-.1h8.001z" id="a"/></defs><g fill="none" fill-rule="evenodd"><ellipse fill="#B7B7B7" opacity=".4" cx="24" cy="42.5" rx="11" ry="2.5"/><g transform="translate(3 1)"><use fill="#B7B7B7" xlink:href="#a"/><use fill="url(#b)" xlink:href="#a"/></g><path d="M18 6a6.936 6.936 0 004.729-.738L25 4a5.959 5.959 0 017.627 1.59l.123.16a33.561 33.561 0 015.017 9.3L39.5 20h-31c.546-3.092 1.546-6.092 3-9 .457-.915 1.229-2.065 2.314-3.45A4.257 4.257 0 0118 6z" fill="#B7B7B7"/><path d="M37.767 15.05L39.15 19H8.693a32.51 32.51 0 011.885-6h26.396c.286.674.551 1.358.793 2.05z" fill="#818181" opacity=".8"/><path d="M3.93 18.387l9.32-1.137a84.673 84.673 0 0120.5 0l9.32 1.137c.53.064.93.515.93 1.05v.505c0 .584-.474 1.058-1.058 1.058H4.058A1.058 1.058 0 013 19.942v-.505c0-.535.4-.986.93-1.05z" fill="#B7B7B7"/></g></svg>