<svg width="26" height="23" xmlns="http://www.w3.org/2000/svg"><g fill="none" fill-rule="evenodd"><g transform="translate(7.302 1.193)"><path d="M1.05 12.656h3.152v2.708a1.576 1.576 0 11-3.152 0v-2.708zm12.605 0h3.151v2.708a1.576 1.576 0 11-3.15 0v-2.708z" fill="#202124"/><path d="M8.928.343c1.158 0 2.222.09 3.194.273a4.013 4.013 0 013.141 2.929l.96 3.675a4.013 4.013 0 011.144 3.652l-.035.178a3.315 3.315 0 01-3.254 2.677h-10.3A3.315 3.315 0 01.525 11.05l-.035-.178a4.013 4.013 0 011.14-3.65l.964-3.678A4.013 4.013 0 015.735.616 17.333 17.333 0 018.928.343z" stroke="#202124" fill="#FF5252"/><path d="M6.615 2.704c.796-.147 1.567-.22 2.313-.22.747 0 1.518.073 2.313.22a2.293 2.293 0 011.765 1.542l.422 1.29a.53.53 0 01-.505.696h-7.99a.53.53 0 01-.504-.696l.422-1.29a2.293 2.293 0 011.764-1.542z" fill="#75011D"/><ellipse fill="#FFF" cx="13.13" cy="9.98" rx="1.576" ry="1.606"/><ellipse fill="#FFF" cx="4.727" cy="9.98" rx="1.576" ry="1.606"/></g><g transform="translate(1 5.476)"><path d="M1.05 12.656h3.152v2.708a1.576 1.576 0 11-3.152 0v-2.708zm12.605 0h3.151v2.708a1.576 1.576 0 11-3.15 0v-2.708z" fill="#202124"/><path d="M8.928.343c1.158 0 2.222.09 3.194.273a4.013 4.013 0 013.141 2.929l.96 3.675a4.013 4.013 0 011.144 3.652l-.035.178a3.315 3.315 0 01-3.254 2.677h-10.3A3.315 3.315 0 01.525 11.05l-.035-.178a4.013 4.013 0 011.14-3.65l.964-3.678A4.013 4.013 0 015.735.616 17.333 17.333 0 018.928.343z" stroke="#202124" fill="#FF5252"/><path d="M6.615 2.704c.796-.147 1.567-.22 2.313-.22.747 0 1.518.073 2.313.22a2.293 2.293 0 011.765 1.542l.422 1.29a.53.53 0 01-.505.696h-7.99a.53.53 0 01-.504-.696l.422-1.29a2.293 2.293 0 011.764-1.542z" fill="#75011D"/><ellipse fill="#FFF" cx="13.13" cy="9.98" rx="1.576" ry="1.606"/><ellipse fill="#FFF" cx="4.727" cy="9.98" rx="1.576" ry="1.606"/></g></g></svg>