<svg width="21" height="25" xmlns="http://www.w3.org/2000/svg"><g fill="none" fill-rule="evenodd"><path d="M10.625 1.61a9.625 9.625 0 019.625 9.624 9.629 9.629 0 01-6.292 9.033l-2.453 3.269a1.1 1.1 0 01-1.76 0l-2.453-3.27A9.629 9.629 0 011 11.235a9.625 9.625 0 019.625-9.625z" stroke="#202124" fill="#FFC400"/><path d="M10.858 6.61c.549 0 .939.44.87.996l-.486 3.882c-.068.55-.573.997-1.128.997h.539c-.555 0-1.06-.442-1.129-.997L9.04 7.606c-.069-.55.321-.997.87-.997h.949zm.627 8.063v.026c.001.615-.466 1.09-1.1 1.091-.633.001-1.102-.471-1.103-1.086v-.026c-.002-.615.466-1.09 1.099-1.091.633-.002 1.102.471 1.104 1.086z" fill="#202124"/></g></svg>