<svg width="92" height="21" xmlns="http://www.w3.org/2000/svg"><g fill="none"><path d="M56.146 10.81c.37-1.632 1.632-2.779 3.459-2.779 1.69 0 2.936.933 3.265 2.779h-6.724zm3.595 8.258c2.895 0 4.8-1.263 5.849-2.467.31-.35.253-.68-.058-.915l-1.594-1.184c-.33-.253-.583-.156-.835.096-.389.389-1.341 1.418-3.322 1.418-1.69 0-3.342-1.049-3.692-2.759h9.619c.388 0 .641-.233.641-.621v-.582c0-3.809-2.39-7.054-6.82-7.054-3.947 0-7.093 2.876-7.093 7.092 0 4.217 3.127 6.976 7.305 6.976zm-19.744-.233h11.037c.389 0 .642-.233.642-.622v-1.827c0-.388-.253-.62-.642-.62h-6.916l6.82-7.249c.273-.292.312-.486.312-.894V5.855c0-.389-.253-.622-.642-.622H40.115c-.389 0-.64.233-.64.622l-.02 1.826c0 .39.252.622.641.622h6.431l-6.859 7.307c-.272.288-.31.485-.31.893v1.71c0 .389.254.622.64.622zm-10.161-2.953c-2.214 0-3.808-1.71-3.808-3.848s1.593-3.847 3.808-3.847 3.77 1.71 3.77 3.847-1.555 3.848-3.77 3.848zm-.62 3.186c2.098 0 3.594-.835 4.294-2.098v1.243c0 .389.252.622.641.622h2.254c.389 0 .641-.233.641-.622V5.855c0-.389-.252-.622-.64-.622H34.15c-.389 0-.641.233-.641.622v1.244C32.809 5.836 31.313 5 29.292 5c-3.77 0-6.918 2.876-6.918 7.092 0 4.217 3.148 6.976 6.842 6.976zM12.25 5.233H9.783c-.37 0-.622.136-.758.564l-2.72 8.588L3.74 5.777c-.096-.33-.292-.544-.738-.544H.612c-.486 0-.72.31-.564.797l4.1 12.203c.136.408.37.602.738.602H7.51c.369 0 .68-.175.815-.602l2.643-8.414 2.643 8.414c.136.427.408.602.818.602h2.562c.428 0 .661-.214.797-.602l4.1-12.203c.156-.486-.078-.797-.563-.797h-2.312c-.447 0-.642.214-.738.544l-2.545 8.608-2.72-8.588c-.137-.426-.389-.564-.759-.564z" fill="#FFF"/><g transform="translate(71)"><path d="M11.55 17.846H9.406a2.625 2.625 0 00-4.774-.907v.018a8.248 8.248 0 01-2.118-1.565c-.738-.747-1.14-1.43-1.324-1.86a2.569 2.569 0 001.257-.731 2.62 2.62 0 00.7-1.793v-1.56a8.366 8.366 0 011.758-5.14C6.537 2.214 8.953 1.04 11.55 1.04a8.393 8.393 0 015.931 14.327 8.396 8.396 0 01-5.93 2.478z" fill="#FFF"/><path d="M20.984 9.436a9.373 9.373 0 00-2.768-6.668A9.365 9.365 0 0011.552 0C8.669 0 5.984 1.285 4.15 3.584a9.41 9.41 0 00-2.046 5.861v1.565c0 .797-.628 1.582-1.69 1.584a.405.405 0 00-.384.287c-.197.654.603 2.098 1.736 3.244a9.216 9.216 0 002.48 1.788 2.623 2.623 0 002.584 3.07 2.61 2.61 0 002.573-2.097h2.2c.294 1.482 1.835 2.498 3.483 1.942a2.495 2.495 0 001.544-1.515 2.683 2.683 0 00-.012-1.916 9.504 9.504 0 001.602-1.29 9.376 9.376 0 002.764-6.671zm-9.434 8.41H9.406a2.625 2.625 0 00-4.774-.907v.018a8.248 8.248 0 01-2.118-1.565c-.738-.747-1.14-1.43-1.324-1.86a2.569 2.569 0 001.257-.731 2.62 2.62 0 00.7-1.793v-1.56a8.366 8.366 0 011.758-5.14C6.537 2.214 8.953 1.04 11.55 1.04a8.393 8.393 0 015.931 14.327 8.396 8.396 0 01-5.93 2.478z" fill="#000"/><circle fill="#000" cx="15.741" cy="7.342" r="1.049"/><circle fill="#000" cx="9.443" cy="7.342" r="1.049"/><path d="M9.763 10.78a.527.527 0 00-.477-.299.522.522 0 00-.475.74 4.196 4.196 0 007.592 0 .522.522 0 00-.474-.739h-.013a.516.516 0 00-.465.298 3.146 3.146 0 01-5.688 0z" fill="#000"/></g></g></svg>