<svg width="48" height="48" xmlns="http://www.w3.org/2000/svg" xmlns:xlink="http://www.w3.org/1999/xlink"><defs><linearGradient x1="50%" y1="45.999%" x2="77.206%" y2="15.651%" id="b"><stop stop-color="#818181" stop-opacity="0" offset="0%"/><stop stop-color="#818181" offset="100%"/></linearGradient><linearGradient x1="50%" y1="45.999%" x2="83.016%" y2="15.651%" id="d"><stop stop-color="#818181" stop-opacity="0" offset="0%"/><stop stop-color="#818181" offset="100%"/></linearGradient><path d="M24 7c8.284 0 15 6.716 15 15 0 6.5-4.135 12.036-9.92 14.118l-4.785 5.736a.384.384 0 01-.59 0l-4.77-5.73C13.143 34.045 9 28.506 9 22c0-8.284 6.716-15 15-15zm0 8a7 7 0 100 14 7 7 0 000-14z" id="a"/><path d="M24 7c8.284 0 15 6.716 15 15 0 .757-.056 1.5-.164 2.228A12.48 12.48 0 0134.5 25c-1.367 0-2.683-.22-3.914-.625a7 7 0 00-8.292-9.166A12.55 12.55 0 0122 12.5c0-1.966.454-3.826 1.263-5.481.245-.013.49-.019.737-.019z" id="c"/></defs><g fill="none" fill-rule="evenodd"><ellipse fill="#B7B7B7" opacity=".4" cx="24" cy="42.5" rx="11" ry="2.5"/><use fill="#B7B7B7" xlink:href="#a"/><use fill="url(#b)" xlink:href="#a"/><use fill="#8B8B8B" xlink:href="#c"/><use fill="url(#d)" xlink:href="#c"/><circle fill="#B7B7B7" cx="34.5" cy="12.5" r="9.5"/><path d="M34.5 14a1.5 1.5 0 110 3 1.5 1.5 0 010-3zm0-7a1.37 1.37 0 011.364 1.494l-.281 3.097a1 1 0 01-.996.909h-.174a1 1 0 01-.996-.91l-.281-3.096A1.37 1.37 0 0134.5 7z" fill="#2E2E2E"/></g></svg>