<svg width="39" height="38" xmlns="http://www.w3.org/2000/svg"><g transform="translate(-6 -5)" fill="none" fill-rule="evenodd"><circle fill="#B7B7B7" fill-rule="nonzero" cx="23" cy="26" r="17"/><path d="M23.214 9.001C32.504 9.116 40 16.683 40 26c0 .304-.008.606-.024.906A12.94 12.94 0 0134.75 28c-7.18 0-13-5.82-13-13 0-2.154.524-4.185 1.451-5.974z" fill="#8B8B8B" fill-rule="nonzero"/><path d="M23 15a4.833 4.833 0 014.833 4.833v1.209a4.833 4.833 0 11-9.666 0v-1.209A4.833 4.833 0 0123 15zm-4.833 12.932a14.193 14.193 0 019.666 0l2.443.885a3.625 3.625 0 012.39 3.409v1.565a2 2 0 01-.598 1.427c-1.862 1.829-5.001 2.743-9.418 2.743-4.436 0-7.395-.922-8.876-2.768a2 2 0 01-.44-1.252v-1.715c0-1.526.955-2.89 2.39-3.409l2.443-.885z" fill="#2E2E2E"/><circle fill="#B7B7B7" fill-rule="nonzero" cx="35" cy="15" r="10"/><path d="M37.25 12.09h-4V10h5a1 1 0 011 1v5h-2v-3.91zm-4 5.91v2h5a1 1 0 001-1v-3h-2v2h-4z" fill="#3C4043" fill-rule="nonzero"/><path fill="#3C4043" d="M31.248 11.998L34.634 15l-3.386 2.998z"/><path fill="#3C4043" d="M32.734 14v2h-4.875v-2z"/></g></svg>