<svg width="20" height="20" xmlns="http://www.w3.org/2000/svg"><g transform="matrix(-1 0 0 1 18 1)" fill="none" fill-rule="evenodd"><path d="M11.21 9.527l.894 1.79-5.832 2.915-.894-1.789 5.832-2.916zM4.948 5.535l1.03-1.715 6.298 3.78-1.029 1.715-6.299-3.78z" fill="#00B0EB" fill-rule="nonzero"/><path d="M3.5 7a3.5 3.5 0 110-7 3.5 3.5 0 010 7zm0-2a1.5 1.5 0 100-3 1.5 1.5 0 000 3z" fill="#00B0EB" fill-rule="nonzero"/><circle stroke="#00B0EB" stroke-width="2" fill="#FFF" cx="3.5" cy="14.5" r="2.5"/><path d="M13.5 13a3.5 3.5 0 110-7 3.5 3.5 0 010 7zm0-2a1.5 1.5 0 100-3 1.5 1.5 0 000 3z" fill="#00B0EB" fill-rule="nonzero"/></g></svg>