<svg color="#A2ECFF" width="98" height="17" xmlns="http://www.w3.org/2000/svg" xmlns:xlink="http://www.w3.org/1999/xlink"><clipPath id="b" clipPathUnits="objectBoundingBox"><path d="M0 0h.6v1H0z"/></clipPath><path id="a" fill="currentColor" d="M4.5 16.8a1 1 0 01-1.5-1l.9-5L.3 7.5a1 1 0 01.6-1.7L5.8 5 8 .6a1 1 0 011.7 0L12 5l5 .7a1 1 0 01.5 1.7L13.9 11l.8 4.9a1 1 0 01-1.5 1l-4.4-2.3-4.3 2.3z"/><use x="20" xlink:href="#a"/><use x="40" xlink:href="#a"/><use x="60" xlink:href="#a"/><use x="80" color="#00000040" xlink:href="#a"/><use x="80" clip-path="url(#b)" xlink:href="#a"/></svg>