<svg width="59" height="16" xmlns="http://www.w3.org/2000/svg"><path d="M1.174 3.797C1.1 3.57 1 3.187 1 2.857c0-.89.696-1.755 1.815-1.755.945 0 1.567.61 1.84 1.5l2.04 6.917 2.089-6.891c.273-.916.97-1.552 1.94-1.552h.223c.97 0 1.667.636 1.94 1.552l2.114 6.917 2.089-6.968c.249-.814.82-1.475 1.815-1.475 1.045 0 1.766.813 1.766 1.78 0 .254-.075.61-.124.788l-3.358 9.74c-.398 1.196-1.168 1.73-2.089 1.73h-.124c-.92 0-1.69-.534-2.04-1.653L10.824 6.62l-2.139 6.867c-.348 1.119-1.119 1.653-2.039 1.653h-.124c-.92 0-1.691-.534-2.09-1.73L1.175 3.797zm19.125 7.12c0-2.974 2.213-4.348 5.371-4.348 1.343 0 2.313.23 3.258.56V6.9c0-1.602-.97-2.492-2.86-2.492-1.045 0-1.89.152-2.611.381a1.556 1.556 0 01-2.114-1.475c0-.686.423-1.271 1.02-1.5 1.193-.458 2.487-.712 4.252-.712 2.064 0 3.556.56 4.501 1.526.995 1.017 1.443 2.517 1.443 4.348v6.205c0 1.043-.82 1.857-1.84 1.857-1.095 0-1.816-.789-1.816-1.602-.92 1.017-2.188 1.704-4.029 1.704-2.511 0-4.575-1.475-4.575-4.171v-.051zm12.857 2.34c0-.737.248-1.22.845-1.881l6.192-6.994h-5.272a1.545 1.545 0 01-1.542-1.551c0-.865.697-1.577 1.542-1.577h8.282c1.069 0 1.84.636 1.84 1.552v.076c0 .737-.249 1.22-.846 1.882l-6.217 6.993h5.521c.846 0 1.542.712 1.542 1.577s-.696 1.551-1.542 1.551h-8.505c-1.07 0-1.84-.636-1.84-1.551v-.076zm11.44-5.11v-.052c0-3.89 2.71-7.095 6.59-7.095 4.45 0 6.415 3.738 6.415 6.561 0 1.12-.77 1.857-1.765 1.857H48.35c.373 1.754 1.567 2.67 3.258 2.67 1.044 0 1.915-.33 2.686-.916a1.39 1.39 0 01.92-.305c.846 0 1.467.661 1.467 1.526 0 .509-.224.89-.497 1.145-1.169 1.017-2.686 1.652-4.626 1.652-4.003 0-6.963-2.873-6.963-7.044zM28.977 9.391c-.647-.305-1.492-.508-2.413-.508-1.616 0-2.61.66-2.61 1.881v.051c0 1.043.845 1.653 2.063 1.653 1.766 0 2.96-.992 2.96-2.39v-.687zm25.017-2.39c-.223-1.73-1.218-2.9-2.81-2.9-1.566 0-2.586 1.145-2.884 2.9h5.694z" fill="#00BFEC" fill-rule="evenodd"/></svg>