<svg width="24" height="24" xmlns="http://www.w3.org/2000/svg" xmlns:xlink="http://www.w3.org/1999/xlink"><defs><path id="a" d="M.007 0h5.35v5.35H.007z"/></defs><g fill="none" fill-rule="evenodd"><path d="M17.594 19.8a2.675 2.675 0 10-5.35 0 2.675 2.675 0 005.35 0" fill="#000"/><path d="M3.146 10.704a9.095 9.095 0 019.095-9.095c5.01 0 9.095 4.085 9.095 9.095a9.095 9.095 0 01-9.095 9.095l-3.21-.002C3.684 19.787.992 15.494 1 14.443a2.136 2.136 0 002.146-2.134v-1.605z" fill="#3CF"/><path d="M3.146 10.704a9.095 9.095 0 019.095-9.095c5.01 0 9.095 4.085 9.095 9.095a9.095 9.095 0 01-9.095 9.095l-3.21-.002C3.684 19.787.992 15.494 1 14.443a2.136 2.136 0 002.146-2.134v-1.605z" stroke="#000" stroke-linejoin="round"/><g transform="translate(4.745 17.126)"><mask id="b" fill="#fff"><use xlink:href="#a"/></mask><path d="M5.357 2.675a2.675 2.675 0 10-5.35 0 2.675 2.675 0 005.35 0" fill="#000" mask="url(#b)"/></g><path d="M6.683 12.274a4.264 4.264 0 01-4.259-4.259 4.264 4.264 0 014.26-4.258 4.264 4.264 0 014.258 4.258 4.264 4.264 0 01-4.259 4.26" fill="#FFF"/><path d="M6.683 3.222a4.794 4.794 0 100 9.587 4.794 4.794 0 000-9.587m0 1.07a3.728 3.728 0 013.724 3.723 3.728 3.728 0 01-3.724 3.724A3.728 3.728 0 012.96 8.015a3.728 3.728 0 013.724-3.723" fill="#050505"/><path d="M18.469 12.274a4.264 4.264 0 01-4.259-4.259 4.264 4.264 0 014.259-4.258 4.264 4.264 0 014.259 4.258 4.264 4.264 0 01-4.259 4.26" fill="#FFF"/><path d="M18.469 3.222a4.794 4.794 0 100 9.587 4.794 4.794 0 000-9.587m0 1.07a3.728 3.728 0 013.724 3.723 3.728 3.728 0 01-3.724 3.724 3.728 3.728 0 01-3.724-3.724 3.728 3.728 0 013.724-3.723" fill="#050505"/><path d="M16.884 9.631a1.07 1.07 0 100-2.14 1.07 1.07 0 000 2.14m-8.573 0a1.07 1.07 0 100-2.14 1.07 1.07 0 000 2.14" fill="#000"/><path stroke="#000" stroke-width="1.07" stroke-linecap="round" d="M10.987 8.075h3.226m-3.226 6.39h3.226"/></g></svg>