<svg width="90" height="90" fill="none" xmlns="http://www.w3.org/2000/svg"><path fill-rule="evenodd" clip-rule="evenodd" d="M49.452 76.55l-9.155-.006c-1.02-5.142-5.54-9.017-10.961-9.017-3.968 0-7.45 2.002-9.434 5.131v.075c-3.347-1.704-6.387-4.003-9.05-6.705-3.152-3.198-4.867-6.124-5.65-7.971a10.931 10.931 0 005.363-3.128c1.947-2.065 2.988-4.864 2.989-7.682v-6.683c0-7.962 2.643-15.739 7.522-22.017 6.97-8.97 17.289-13.992 28.375-13.992 9.544 0 18.533 3.747 25.311 10.552 6.778 6.804 10.512 15.828 10.512 25.408 0 9.605-3.727 18.635-10.493 25.427-6.61 6.635-15.678 10.607-25.329 10.607z" fill="#fff"/><mask id="a" maskUnits="userSpaceOnUse" x="0" y="0" width="90" height="90"><path fill-rule="evenodd" clip-rule="evenodd" d="M.126.086h89.608V90H.126V.086z" fill="#fff"/></mask><g mask="url(#a)"><path fill-rule="evenodd" clip-rule="evenodd" d="M49.452 76.55l-9.155-.006c-1.02-5.142-5.54-9.017-10.961-9.017-3.969 0-7.451 2.003-9.435 5.131v.075c-3.346-1.704-6.386-4.003-9.049-6.705-3.153-3.198-4.868-6.124-5.651-7.971a10.932 10.932 0 005.364-3.128c1.946-2.065 2.988-4.864 2.989-7.682v-6.683c0-7.962 2.643-15.739 7.521-22.017 6.971-8.97 17.29-13.992 28.376-13.992 9.543 0 18.532 3.747 25.31 10.552 6.78 6.804 10.512 15.828 10.512 25.408 0 9.605-3.726 18.635-10.492 25.427-6.61 6.635-15.679 10.607-25.329 10.607zm40.282-36.035c0-10.774-4.196-20.92-11.815-28.569C70.299 4.299 60.192.087 49.459.087 37.152.086 25.686 5.59 17.854 15.44c-5.661 7.12-8.742 16.003-8.742 25.113v6.707c-.001 3.415-2.684 6.78-7.214 6.785-.753 0-1.425.502-1.643 1.226-.843 2.803 2.573 8.989 7.414 13.9a39.343 39.343 0 0010.596 7.672 11.318 11.318 0 00-.165 1.911C18.1 84.965 23.114 90 29.301 90c5.443 0 9.977-3.822 10.99-8.987l9.396.005c1.253 6.351 7.831 10.704 14.87 8.32a10.669 10.669 0 006.59-6.5c1.051-2.931.906-5.775-.05-8.21a40.644 40.644 0 006.841-5.526c7.607-7.636 11.796-17.788 11.796-28.587z" fill="#000"/></g><path fill-rule="evenodd" clip-rule="evenodd" d="M71.828 31.547c0-2.483-2.005-4.496-4.478-4.496-2.474 0-4.479 2.013-4.479 4.496 0 2.482 2.005 4.495 4.479 4.495 2.473 0 4.478-2.013 4.478-4.495zM44.936 31.547c0-2.483-2.005-4.496-4.479-4.496-2.473 0-4.479 2.013-4.479 4.496 0 2.482 2.006 4.495 4.48 4.495 2.473 0 4.478-2.013 4.478-4.495zM41.824 46.272a2.253 2.253 0 00-2.041-1.276c-1.626 0-2.72 1.697-2.027 3.172 2.867 6.097 9.048 10.316 16.21 10.316 7.163 0 13.343-4.219 16.21-10.316.695-1.475-.4-3.172-2.026-3.172h-.057c-.853 0-1.618.502-1.984 1.276-2.159 4.557-6.79 7.716-12.142 7.716-5.353 0-9.984-3.159-12.143-7.716z" fill="#000"/></svg>